name KCF_ref.mot
datacolumns 3
datarows 140
range 0.94833300 2.10666600
endheader
time	medial	lateral	
          0.94833300	        228.03390600	        132.31810000	
          0.95666600	        227.80625900	        135.62917100	
          0.96500000	        227.17244200	        138.73873200	
          0.97333300	        226.71662700	        142.13405500	
          0.98166600	        227.24123300	        145.33968800	
          0.99000000	        228.17336100	        146.86926300	
          0.99833300	        229.00834700	        146.63953300	
          1.00666600	        230.00038700	        146.89885000	
          1.01500000	        231.71774300	        148.21422700	
          1.02333300	        234.17888400	        150.15476600	
          1.03166600	        235.45595800	        152.74376600	
          1.04000000	        234.57504100	        155.91292100	
          1.04833300	        232.03261800	        159.20332800	
          1.05666600	        227.98882700	        160.58207300	
          1.06500000	        222.43127000	        158.60967400	
          1.07333300	        215.43464700	        154.87372500	
          1.08166600	        207.12702300	        149.64702500	
          1.09000000	        197.81071400	        142.16795300	
          1.09833300	        188.31036200	        136.88434700	
          1.10666600	        178.67118500	        135.19732700	
          1.11500000	        167.77713300	        132.74783200	
          1.12333300	        155.17804400	        127.81434400	
          1.13166600	        141.13630200	        121.15180000	
          1.14000000	        126.57333600	        114.25129400	
          1.14833300	        109.82552200	        107.18864500	
          1.15666600	         85.76963600	         97.94570600	
          1.16500000	         59.41932800	         89.14577300	
          1.17333300	         41.12514300	         85.07841100	
          1.18166600	         31.28394300	         83.45138500	
          1.19000000	         26.07598600	         84.08202300	
          1.19833300	         20.37996300	         88.71247900	
          1.20666600	         15.75465700	         91.55727200	
          1.21500000	         15.09144500	         86.39252200	
          1.22333300	         14.99956900	         77.48372600	
          1.23166600	         13.88280300	         68.48394800	
          1.24000000	         12.92916600	         60.26499200	
          1.24833300	         12.26596100	         51.55952900	
          1.25666600	         11.82471200	         42.47367600	
          1.26500000	         12.21316400	         37.06970600	
          1.27333300	         12.71064200	         34.54114800	
          1.28166600	         12.37488500	         31.78332100	
          1.29000000	         13.13546300	         29.14175600	
          1.29833300	         15.78285600	         27.51430400	
          1.30666600	         17.33985400	         26.72193500	
          1.31500000	         18.11421300	         26.77650600	
          1.32333300	         20.32033200	         27.75416300	
          1.33166600	         23.66026400	         28.95799100	
          1.34000000	         26.77445800	         29.66045200	
          1.34833300	         28.42231400	         29.51628300	
          1.35666600	         29.08207900	         28.72154800	
          1.36500000	         29.49684900	         27.78598900	
          1.37333300	         29.31222800	         27.57992300	
          1.38166600	         28.38895900	         27.56594700	
          1.39000000	         27.08407600	         25.83555800	
          1.39833300	         25.36039000	         23.99241600	
          1.40666600	         23.19268300	         23.83704100	
          1.41500000	         21.19283200	         22.84622200	
          1.42333300	         19.65509300	         21.19055500	
          1.43166600	         18.43651700	         21.60739800	
          1.44000000	         17.54907600	         22.35852700	
          1.44833300	         16.84684300	         22.01429900	
          1.45666600	         15.84567000	         21.74587000	
          1.46500000	         15.01000000	         21.59000000	
          1.47333300	         15.36036800	         20.75982700	
          1.48166600	         16.76455300	         20.10071900	
          1.49000000	         18.76931300	         20.30203100	
          1.49833300	         20.82868200	         20.80534700	
          1.50666600	         21.94410100	         21.32215700	
          1.51500000	         21.66852500	         21.75265700	
          1.52333300	         22.21119800	         21.65213100	
          1.53166600	         24.48934200	         21.36416900	
          1.54000000	         27.12757600	         22.26038700	
          1.54833300	         29.74919900	         24.42177500	
          1.55666600	         33.01098900	         26.99403800	
          1.56500000	         37.92746300	         29.40684900	
          1.57333300	         44.44025000	         32.18477100	
          1.58166600	         50.91697800	         37.06723100	
          1.59000000	         56.00248700	         43.69170700	
          1.59833300	         58.90447800	         51.92420700	
          1.60666600	         59.69760500	         64.00368500	
          1.61500000	         61.69991900	         80.18413900	
          1.62333300	         70.01899800	         97.73745900	
          1.63166600	         79.19660600	        112.03501700	
          1.64000000	         84.17174000	        120.60212300	
          1.64833300	         84.99457800	        123.96590400	
          1.65666600	         83.25300500	        119.19242100	
          1.66500000	         81.01380500	        103.04659600	
          1.67333300	         77.86882400	         86.47798100	
          1.68166600	         73.92296300	         76.43459400	
          1.69000000	         71.10862900	         67.55825000	
          1.69833300	         69.20698900	         59.76639000	
          1.70666600	         66.77080200	         56.27283400	
          1.71500000	         64.20684200	         55.44458700	
          1.72333300	         62.63495300	         55.58021200	
          1.73166600	         63.40314600	         55.78545400	
          1.74000000	         67.86388100	         55.18771000	
          1.74833300	         76.22455900	         53.63747900	
          1.75666600	         85.71513400	         52.83085200	
          1.76500000	         95.58108200	         52.80734200	
          1.77333300	        106.91646000	         52.46852800	
          1.78166600	        122.25501700	         51.34574400	
          1.79000000	        141.91132200	         49.22523100	
          1.79833300	        158.21287000	         46.08575300	
          1.80666600	        169.46845800	         43.43578800	
          1.81500000	        178.87632600	         43.26915200	
          1.82333300	        188.39363600	         45.82080800	
          1.83166600	        198.04392500	         50.80537900	
          1.84000000	        205.19376500	         57.50766700	
          1.84833300	        209.08454500	         64.37431800	
          1.85666600	        210.71148600	         69.99644400	
          1.86500000	        214.16612100	         74.61847200	
          1.87333300	        220.83780800	         78.34071100	
          1.88166600	        226.01869400	         80.51200700	
          1.89000000	        229.20238100	         82.34730400	
          1.89833300	        231.64843200	         84.81697400	
          1.90666600	        233.66518300	         86.66109200	
          1.91500000	        235.30000000	         87.58000000	
          1.92333300	        236.48200000	         88.42258500	
          1.93166600	        237.34705200	         88.95861700	
          1.94000000	        238.17437800	         88.96138100	
          1.94833300	        239.42593700	         88.86319200	
          1.95666600	        240.94717800	         89.30033000	
          1.96500000	        242.01641700	         90.66742200	
          1.97333300	        243.05459200	         91.63790300	
          1.98166600	        244.28650500	         91.69941000	
          1.99000000	        245.28170900	         92.00606500	
          1.99833300	        246.21059600	         93.26666700	
          2.00666600	        247.31015900	         95.27927500	
          2.01500000	        247.76469800	         96.65686700	
          2.02333300	        247.37052100	         97.24008700	
          2.03166600	        246.97547600	         98.77204300	
          2.04000000	        246.25015700	        100.74820800	
          2.04833300	        244.44664800	        101.74877700	
          2.05666600	        242.59969700	        103.37521200	
          2.06500000	        241.31692700	        105.71010500	
          2.07333300	        240.48524300	        107.34101800	
          2.08166600	        239.31973900	        109.13603400	
          2.09000000	        237.61252600	        111.75961100	
          2.09833300	        236.53187800	        113.74425300	
          2.10666600	        235.63268000	        115.18558800	
